<?xml version="1.0" encoding="UTF-8"?>
<svg width="1024px" height="1024px" viewBox="0 0 1024 1024" version="1.1" xmlns="http://www.w3.org/2000/svg">
    <title>Arrow</title>
    <defs><linearGradient id="fg" x1="0%" y1="0%" x2="75%" y2="100%"><stop offset="0%" stop-color="#FF6B6B"/><stop offset="100%" stop-color="#E83030"/></linearGradient></defs>
    <g transform="scale(1.6)"><path d="M 435.0,189.5 Q 422,183 408.0,187.0 Q 394,191 379.5,196.0 Q 365,201 350.5,205.5 Q 336,210 321.5,215.0 Q 307,220 292.5,225.0 Q 278,230 264.5,234.5 Q 251,239 236.5,244.0 Q 222,249 207.5,253.5 Q 193,258 178.5,263.0 Q 164,268 154.0,278.5 Q 144,289 147.0,303.5 Q 150,318 163.5,325.5 Q 177,333 190.0,340.0 Q 203,347 215.5,355.0 Q 228,363 240.0,372.5 Q 252,382 262.5,394.0 Q 273,406 281.5,419.5 Q 290,433 297.5,446.0 Q 305,459 312.0,472.5 Q 319,486 333.0,491.0 Q 347,496 358.5,488.5 Q 370,481 374.5,466.5 Q 379,452 383.5,437.5 Q 388,423 393.0,409.0 Q 398,395 403.0,380.0 Q 408,365 412.5,351.0 Q 417,337 422.0,322.5 Q 427,308 432.0,293.5 Q 437,279 441.5,264.5 Q 446,250 450.0,238.0 Q 454,226 451.0,211.0 Q 448,196 435.0,189.5 Z" fill="url(#fg)"/></g>
</svg>
